<svg version="1.1" xmlns="http://www.w3.org/2000/svg" xmlns:xlink="http://www.w3.org/1999/xlink" xml:space="preserve">
	<g>
	<path id="US-AK" d="M167.603,35.759l3.198,4.052l1.076-2.2l5.621-0.536l0.294,2.312l5.389,0.548l3.104-1.774l7.67,1.302l6.547-0.856
		l2.887,0.497l3.854-2.886l5.856,1.243l3.984,0.104l0,0l11.802,33.892l17.131,49.173l4.184-1.208l4.898,0.819l4.288,2.53l5.834,3.949
		l2.256-6.207l3.071-4.361l3.97,3.288l4.231,2.106l5.429,1.936l5.214,4.525l8.531,6.969l9.741,1.418l2.511,4.806l-0.649,4.914
		l-3.833-1.73l-5.065-0.644l-4.396-6.243l-8.468-3.854l-5.617-6.516l-4.302,1.237l-6.866,2.612l-5.941-0.358l-12.001-5.25
		l-4.604-0.137l-8.391-0.489l-5.621,2.604l-9.502-1.406l-6.044-2.247l-4.192,3.081l2.456,5.747l-2.236,1.17l-4.559,3.051l-3.149,3.82
		l-4.464,2.936l-1.75-4.946l0.049-8.942l3.891-3.724l-1.674-1.917l-4.302,6.089l-1.695,6.426l-5.074,7.449l4.087,3.548l-3.032,7.021
		l-4.241,4.506l-4.158,3.418l-0.516,3.987l-6.643,5.57l-0.917,4.226l-5.118,4.424l-3.396-0.232l-4.236,2.918l-4.639,3.435
		l-3.807,3.245l-8.289,3.14l-0.879-1.375l5.075-4.406l4.542-3.062l4.687-5.197l5.847-1.649l1.92-3.801l5.848-6.014l0.796-1.868
		l2.975-3.548l-0.216-6.667l1.492-5.482l-4.798,3.437l-1.678-1.284l-2.01,3.508l-3.555-4.018l-0.819,3.284l-2.234-4.135l-4.108,4.03
		l-2.791,0.297l-0.937-5.171l0.472-3.307l-3.182-2.848l-5.614,2.224l-4.067-3.855l-3.16-1.913l-0.365-5.048l-3.561-3.602l1.334-5.274
		l3.081-5.281l1.127-4.775l3.278-0.938l2.953,1.206l2.875-4.718l3.043,0.474l2.766-3.185l-1.237-4.094l-2.419-1.4l2.527-3.893
		l-2.409,0.384l-3.983,2.453l-1.015,2.153l-3.327-1.743l-5.548,1.486l-5.97-1.847l-1.859-3.653l-5.174-5.215l5.236-4.182l8.169-5.168
		l3.101-0.254l-0.115,4.755l8.013-1.142l-3.673-5.524l-4.923-3.196l-3.011-4.567l-3.79-3.855l-5.133-2.766l1.708-5.221l6.233-0.745
		l4.031-4.842l0.37-4.883l2.99-5.071l3.139-1.503l5.715-5.241l3.115,0.24l4.169-6.134L167.603,35.759z M112.936,111.585l2.518,1.748
		l2.534-0.963l3.347,2.37l4.108,1.117l-0.31,1.006l-3.08,2.013l-3.186-1.932l-1.587-1.639l-3.624,0.55l-0.98-0.81L112.936,111.585z
		 M140.219,145.674l-2.644,1.543l-3.014-1.493l-2.803-2.279l4.278-1.741l3.542,0.592L140.219,145.674z M200.607,162.183l-3.992,4.171
		l-2.803-1.739l-1.469-3.863l3.583-3.843l2.169-1.792l3.136-0.051l2.499,2.232L200.607,162.183z"/>
	<path id="US-AL" d="M843.054,514.812l8.12,27.47l7.16,21.931l3.6,6.75l2.17,3.84l-2.689,4.36l-0.21,7.34l1.56,4.14v4.07l-0.08,3.78
		l1.58,2.75l1.29,2.56l-39.93,4.54l-11.09,2.37l-0.15,1.76l5,5.12l-0.61,4.59l-1.14,3.26l-17.79-0.97l-3.521-34.729l0.32-36.57
		l0.82-29.65l-1.71-4.27l23.399-2.17L843.054,514.812z"/>
	<path id="US-AR" d="M766.254,498.253l-0.061,1.89l-1.649,3.32l-3.09,2.42l-0.46,3.8l-2.74,3.17l0.649,6.58l-1.989,2.25l-0.24,1.82
		l-3.23,1.899l0.13,3.29l-2.14,6.221l-2.1,1.42l-3.15,3.279l-1.74,4.79l-3.699,8.15l-0.15,5.41l2.51,5.85l-0.68,4.521l-16.23,0.02
		l-20.92,1.561l-18.529,0.449l0.829-12.939h-4.409l-3.69,0.37l-1.03-1.471l0.21-19.899l0.021-22.101l-4.05-23.93l22.26-0.16
		l20.24-0.64l19.31-0.89l20.91,0.17l1.71,2.699l-1.91,2.57l-1.899,2.58l-0.99,2.32L766.254,498.253z"/>
	<path id="US-AZ" d="M413.014,463.152l-18.39,127.431l-38.39-5.86l-40.98-23.7l-26.48-16.649l2.63-3.92l2.5,0.55l3-4.03l-2.68-3.76
		l0.03-3.48l-0.15-4.13l4.7-4.359l3.58-9.891l6.55-3.43l-2.62-4.99l-1.52-4.68l-0.71-4.21l-0.38-3.221l0.04-2.069l2.03-4.13
		l0.01-4.54l0.52-4.391l1-4.779l-0.98-3.381l1.81-2.479l3.79,0.78l3.14,2.29l2.28,1.38l1.88-3.15l0.93-0.58l3.47-17.92l28.88,5.19
		l34.44,5.96L413.014,463.152z"/>
	<path id="US-CA" d="M247.544,313.513l-17.77,65.649l24.91,38.101l24.81,36.73l24.25,34.76l-0.04,2.069l0.38,3.221l0.71,4.21
		l1.52,4.68l2.62,4.99l-6.55,3.43l-3.58,9.891l-4.7,4.359l0.15,4.13l-0.03,3.48l2.68,3.76l-3,4.03l-2.5-0.55l-24.4-2.83l-21.77-3.21
		l-0.34-8.7l-5.13-13.351l-16.39-18.1l-7.17-2.72l-6.12-9.011l-13.93-5.569l-3.65-4.82l1.14-12.6l-11.03-26.87l-5.61-34.54l2.12-4.85
		l-5.41-9.471l-7.53-22.22l3.25-18.36l-5.08-14.63l9.37-16.76l5.37-18.71L247.544,313.513z"/>
	<path id="US-CO" d="M544.063,408.603l-2.149,34.87l-2.23,33.22l-17.45-1.33l-21.699-1.85l-30.771-3.09l-28.54-3.44l-28.21-3.83
		l12.84-89.85l17.07,2.36l17.08,2.18l34.229,3.78l17.15,1.609l34.229,2.66l-1.51,21.98L544.063,408.603z"/>
	<path id="US-CT" d="M1054.644,312.173l3.4,11.94l-0.13,3.48l-7,3.07l-9.341,3.62l-11.659,8.5l-1.271-2.54l3.08-3.06l-1.78-1.54
		l-3.329-17.07l12.659-2.83L1054.644,312.173z"/>
	<path id="US-DC" d="M983.523,404.613l-0.189-1.32l-1.851-1.6l1.181-1.361l2.689,1.83L983.523,404.613z"/>
	<path id="US-DE" d="M1006.733,376.113l-2,2.89l1.42,4.149l6.32,11.08l7.33,10.2l-11.58,2.66l-7.64-27.899l0.909-2.041l1.311-1.34
		L1006.733,376.113z"/>
	<path id="US-FL" d="M935.054,600.013l5.22,16.08l10.58,17.33l11.851,15.47l1.529,8.851l12.881,21.75l4.47,20.21l-0.811,20.569
		l-8.06,5.55l-10.75-1.06l-4.94-9.52l-8.739-4.011l-13.99-17.989l-12.521-15.19l-3.46-10.7l1.41-14.38l-6.48-12.06l-14.859-11.801
		l-12.45-7.109l-21.1,12.35l-5.32-5.84l-19.83-8.17l-22.05,5.1l1.14-3.26l0.61-4.59l-5-5.12l0.15-1.76l11.09-2.37l39.93-4.54
		l3.72,5.75l19.851-1.5l32.27-1.17l2.061,3.729l2.22-2.42l-1.17-7.859l2.229-1.141l4.131,1.061L935.054,600.013z"/>
	<path id="US-GA" d="M890.344,508.873l-1.771,2.159l-2.369,4.681l5.55,3.03l3.43,0.899l4.51,6.61l2.82,3.66l7.34,4.35l1.72,2.6
		l5.03,2.971l3.04,5.01l6.771,3.58l2.18,4.92l1.53,2.31l-0.391,1.761l3.95,1.88l2.58,3.91l0.67,4.29l1.9,0.539l3.479,0.61
		l-5.649,17.89l-1.61,13.48l-4.189,0.24l-4.131-1.061l-2.229,1.141l1.17,7.859l-2.22,2.42l-2.061-3.729l-32.27,1.17l-19.851,1.5
		l-3.72-5.75l-1.29-2.56l-1.58-2.75l0.08-3.78v-4.07l-1.56-4.14l0.21-7.34l2.689-4.36l-2.17-3.84l-3.6-6.75l-7.16-21.931l-8.12-27.47
		l14.34-1.5l9.87-1.479L890.344,508.873z"/>
	<path id="US-HI" d="M173.27,536.901l-2.68,1.969l-3.051-1.064l-3.502-3.367l1.538-2.09l3.281-1.56l4.76,0.544l0.855,1.574
		L173.27,536.901z M206.578,551.578l1.559,3.548l-3.545,0.613l-2.062-1.809l-1.234,0.21l-0.495,0.207l-2.741-0.284l-2.949-6.332
		l3.209-0.077l3.592-2.012l2.401,5.434L206.578,551.578z M227.531,560.01l-3.305,2.026l-9.095-1.933l1.059-2.593L227.531,560.01z
		 M230.052,562.935l2.491,2.895l3.971-0.588l5.318,3.966l0.003,1.762l-2.102,1.481l-6.528,0.496l-1.243-4.559l-2.867-0.659
		l-1.56-3.013l0.985-1.657L230.052,562.935z M250.106,608.316l-2.157,3.23l-5.458-2.771l0.214-7.172l-2.93-8.628l5.297-5.754
		l-1.366-3.598l0.523-2.082l0.94-0.312l13.319,7.166l2.303,2.837l0.293,2.941l1.654,0.457l0.697,2.042l3.093,2.904l-5.655,4.459
		l-5.653,1.08L250.106,608.316z"/>
	<path id="US-IA" d="M728.544,330.522l0.3,1.23l2.35,3.49l-1.39,1.8l0.31,4.77l0.79,1.99l1.271,3.55l5.59,1.87l1.83,3.37l1.08,1.67
		l2.06,1.04l0.95,2.4l2.76,1.65l1.87,1.85l-0.52,6.15l-2.82,5.33l-1.04,1.7l-3.81,1.54l-5.79,1.45l-1.32,3.98l2.22,1.65l0.92,3.47
		l-2.029,4.05l-0.96,3.5l-4.25,3.601l-0.141,4.149l-2.46-1.77l-3.479-3.521l-18.87,1.26l-19.891,0.74l-15.5,0.301l-15.529,0.1
		l-1.15-4.11l0.48-4.06l-0.38-3.91l-1.771-6.55l-1.13-2.71l-1.23-0.74l-0.119-5.25l-1.061-3.76l-3.07-4.29l0.051-1.88l-1.061-3.75
		l-0.74-2.27l0.03-2.08l-2.7-2.54l1.37-3.72l0.891-3.64l0.409-2.47l-2.109-3.03l0.06-5.55h2.2l18.11,0.02l22.51-0.63l24.18-0.87
		L728.544,330.522z"/>
	<path id="US-ID" d="M404.504,289.323l0.51,0.5l-9.34,55.81l-49.76-8.96l-49.53-10.98l9.6-39.72l2.88-5.97l-0.61-3.2l-2.63-2.2
		l0.88-3.54l3.42-4.51l4.44-3.59l3.92-6.66l3.44-5.24l2.25-2.54l-0.06-3.57l-2.2-2.41l-2.67-5.14l1.06-3.93l-0.62-3.73l6.88-31.2
		l6.67-28.62l14.56,3.32l-4.08,23.87l2.66,6.84l-0.9,4.04l2.04,4.2l3.06,2.89l1.81,4.02l2.8,7.84l3.3,4.09l4.61,1.17l-2.72,4.62
		l-2.72,5.59l0.12,6.03l-2.12,1.07l-1.02,5.77l2.35,2.79l3.65-2.03l2.24-2.83l1.78,1l1.27,3.45l0.41,7.44l2.26,3.35l-0.13,6.05
		l0.65,1.82l3.14,1.18l1.35,3.63l1.74,6.36l3.54-2.56l5.11,1.79l0.83-2.13l8.81,3.02l3.81-0.08l3.06-4.07l1.63,0.91l1.03,3.42
		L404.504,289.323z"/>
	<path id="US-IL" d="M787.204,349.233v0.06l0.659,5.88l5.65,11.47l0,0l0,0l2.43,26.18l2.42,26.15l-1.409,6.47l1.6,1.521l1.29,3.77
		l0.15,3.05l-1.36,1.511l-0.94,3.859l-3.239,5.261l-1.96,6.29l-0.171,4.619l0.271,1.671l-1.76,3.319l1.72,2l-3.02,1.92l-3.921,2.24
		l1.11,4.88l-2.22,2.061l-4.54-1.74l-4.91-0.851l-1.06,2.29l0.96,3.37l-3.48-3.27l-1.91,0.729l-2.72-5.39l0.42-3.44l-1.729-5.38
		l-1.86-0.54l-5.04-4.649l-2.04,0.05l-3.75-2.96l-2.74-3.24l0.9-4.05l1.439-3.4l0.74-4.239l-3.6-3.431l-3.261,1.67l-2.069-0.83
		l-0.51-3.77l-1.721-4.22l-1.68-0.94l-4.22-2.82l-3.551-3.67l-3.14-4.51l-1.89-6.7l1.229-5.71l0.141-4.149l4.25-3.601l0.96-3.5
		l2.029-4.05l-0.92-3.47l-2.22-1.65l1.32-3.98l5.79-1.45l3.81-1.54l1.04-1.7l2.82-5.33l0.52-6.15l-1.87-1.85l-2.76-1.65l-0.95-2.4
		l-2.06-1.04l-1.08-1.67l17.13-1.1l17.51-1.29l12.92-0.91l-0.01-0.06H787.204z"/>
	<path id="US-IN" d="M839.604,362.333l2.46,20.39l2.58,21.93l1.82,15.61l-0.87,1.19l1.99,4.42l-0.55,1.76l-2.961,0.399l-2.52,2.32
		l-4.27-0.32l0.13,4.37l-2.3,1.94l-1.891,4.14l-2.439,0.99l-3.171,7.14l-3.829-1.54l-1.41-2.64l-2.63,4.82l-1.721,2.72l-4.109-2.26
		l-3.9,2.56l-1.14,2.33l-5.84-2.91l-3.61,2.83l-4.771-1.33l0.04,2.511l-2.37-0.381l0.171-4.619l1.96-6.29l3.239-5.261l0.94-3.859
		l1.36-1.511l-0.15-3.05l-1.29-3.77l-1.6-1.521l1.409-6.47l-2.42-26.15l-2.43-26.18l0,0l1.7,1.38l5.75-0.68l4.32-2.94l0,0l18.21-1.84
		l15.88-1.99L839.604,362.333z"/>
	<path id="US-KS" d="M674.573,479.973l-15.96,0.19l-32.739-0.11l-32.75-0.75l-18.181-0.69l-18.159-0.899l-17.101-1.021l2.23-33.22
		l2.149-34.87h0.03l30.44,1.729l22.659,0.91l40.12,0.811h24.021l4.17,2.99l2.27-0.07l0.54,3.28l-2.42,4.229l1.36,2.141l2.229,4.739
		l4.67,2.08l0.181,24.29L674.573,479.973z"/>
	<path id="US-KY" d="M887.894,430.442l0.65,2.08l0.5,4.67l2.64,3.19l1.37,3.27l3.04,2.521l2.2,2.439l3.54-0.119l-6.141,7.77
		l-5.21,3.46l-0.17,1.88l-1.56,2.65l-4.55,3.39l-1.311,2.41l-3.529,1.92l-5.051,1.99l-12.18,2.37l-16.12,1.02l-5.19,0.891
		l-10.5,0.539l-10.659,0.95l-9.811,0.86l-11.33,1.7l-0.68-0.98l-3.61,0.37l0.37,3.55l-26.1,1.87l3.92-2.68l2.75-2.101l-0.62-3.529
		l0.4-2.311l-0.96-3.37l1.06-2.29l4.91,0.851l4.54,1.74l2.22-2.061l-1.11-4.88l3.921-2.24l3.02-1.92l-1.72-2l1.76-3.319l-0.271-1.671
		l2.37,0.381l-0.04-2.511l4.771,1.33l3.61-2.83l5.84,2.91l1.14-2.33l3.9-2.56l4.109,2.26l1.721-2.72l2.63-4.82l1.41,2.64l3.829,1.54
		l3.171-7.14l2.439-0.99l1.891-4.14l2.3-1.94l-0.13-4.37l4.27,0.32l2.52-2.32l2.961-0.399l0.55-1.76l-1.99-4.42l0.87-1.19l6.07-0.23
		l3.38,1.771l5.34,4.47l3.939,1.09l2.96,1.45l4.11-1.2l3.28,0.86l3.6-1.77l3.28-0.87l1.86,2.939L887.894,430.442z"/>
	<path id="US-LA" d="M742.424,568.333l1.439,1.229l-1.569,3.38l3.04,4.53l-0.641,2.86l2.71,3.779l-2.56,2.48l-0.66,4.35l-3.57,3.75
		l-1.51,4.87l-1.5,5.59l-2.27,2.67l1.069,5.66l17.381-0.2l18.529-1.13l-0.3,3.83l-1.05,3.83l1.45,2.8l2.779,2.471l0.971,3.729
		l0.529,2.24l-1.63,9.68l7.221,13.29l-27.62,2.71l-17.33-3.779l-11.79-4.2l-15.34-2.4l-17.36-0.189l-1.72-2.99l1.949-3.41l2.91-3.1
		l-0.06-4.57l-1.49-1.49l1.59-5.51l1.2-2.51l1.68-8.41l-1.83-3.07l-2.399-5.14l-1.8-5.25l-1.17-3.5l-3.25-2.5l-1.71-24.351
		l18.529-0.449l20.92-1.561L742.424,568.333z"/>
	<path id="US-MA" d="M1065.434,289.062l3.14,11.64l8.69,10.04l6.92-1.42l-4.03-7.46l6.301,3.41l0.52,6.61l-10.02,6.74l-8.011,1.81
		l-1.39-3.21l-3.28-1.79l-2.81-5.4l-6.82,2.14l-15.37,3.57l-12.659,2.83l-0.341-16.07l13.48-3.12l19.59-5.12l1.07-2.63l3-2.44
		L1065.434,289.062z"/>
	<path id="US-MD" d="M1000.584,379.193l7.64,27.899l11.58-2.66l1.439,1.771l-4.949,9.129l-3.98,1.271l-1.029,1.83l-11.261-8.58
		l-4.42-16.45l-1.13,8.42l4.44,19.12l-11.91-4.329l-1.681-2.9l-2.64,1.56l-2.569-0.729l0.949-5.36l2.53-2.71l-0.07-1.859l1.83-2.451
		l-2.689-1.83l-1.181,1.361l-3.74-1.801l-3.93-0.58l0.771-2.65l-2.63-1.199l-2.69-0.23l-1.93-2.56l-2.74-2.75l-5.67-0.7l-2.98,2.33
		l-1.56,2.02l-5.26,0.09l-1.86,2.771l-3.26,1.53l-2.49,3.119l-2.29,2.49l-1.93-11.35l15.97-2.99l5.44-1.109l12.16-2.551l14.67-2.99
		L1000.584,379.193z"/>
	<path id="US-ME" d="M1066.754,283.373l-1.63,0.7l-1.61-2.84l-3.87-2.41l-0.01-2.33l-13.29-39.35l5.31-5.64l2.58-11.56l-0.35-18.46
		l6.5-20.01l6.72,4.26l8.84-6.83l8.63,4.2l9.521,29.73l13.99,9.03l3.239,9.15l-12.859,11.77l-13.59,9.85l-13.99,18.47
		L1066.754,283.373z"/>
	<path id="US-MI" d="M830.114,251.863L830.114,251.863l5.319,0.03l0,0l-1.7,2.51l9.03,8.01l-13.66,3.85l-0.54-0.04l-12.74-0.9
		l-11.869,5.92l-10.61,3.16l-8.01,15.38l-0.431-0.12l-0.01,0.04l-2.39-2.49l0.85-3.77l-3.55,0.12l0.4-3.76l0.81-1.92l-1.7-3.07
		l-3.89-1.11l-1.2-3.67l-3.12-0.03l-4.49,0.34l-9.47-3.39l-14.14-3.12l-1.54-4.03l-2.521-0.59l-0.02-0.07l-0.95,0.53l-0.15-0.11
		l0.141,0.1l11.76-6.62l12-8.35l13.09-8.73l-3.95,12.49l9.131,2.13l11.89,7.63l13.42-6.53l15.16-3.76l4.06,5.97l4.91,0.32
		L830.114,251.863z M875.664,327.213L875.664,327.213l-0.37,0.36l-5.98,13.52l-2.54,8.4l0,0l-4.54,9.49l0,0l-6.33,1.07l-7.68,1.01
		l-8.62,1.26l-0.229-1.76l-15.88,1.99l-18.21,1.84l0,0l0,0l3.1-3.48l5.66-11.73l-1.15-14.96l-6.97-13.41l-0.19-9.69l3.061-11.57
		l3.2-8.06l5.819-6.16l2.38,7.43l1.521-11.52l3.25-2.73l1.18-8.89l14.08,2.82l13,7.22l2.75,10.08l-0.03,10.5l-7.71,10.26l1.601,5.57
		l3.28-0.25l8.729-11.34l6.35,1.38l4.891,12.62l2.21,9.1L875.664,327.213z"/>
	<path id="US-MN" d="M748.224,226.013l-0.01,0.01l-15.26,8.59l-10.53,9.78l-10.16,10.17l0.1,3.36l-4.1,1.45l0.69,12.82h-0.5
		l-3.841,2.68l-3.319,2.32l-2.13,4.28l3.52,4.16l-1.02,5.78l0.21,6.19l-0.32,5.03l4.91,4.21l1.95,0.13l5.409,3.02l1.9,1.46l1.26,2.4
		l4.311,3.72l5.72,3.09l0.63,1.85l0.33,5.47l0.57,2.54l-21.73,0.57l-24.18,0.87l-22.51,0.63l-18.11-0.02l0.33-21.28l-1.85-21.85
		l-2.801-1.8l-1.56-3.54l0.89-3.09l3.601-2.53l0.3-3.32l0.03-4.16l-0.971-3.48l-1.3-3.72l-0.729-4.66l-0.15-5.22l-0.52-1.26
		l-0.58-6.73l-0.03-3.09l-0.28-2.75l-0.729-4.66l-1.83-4.74l-1.74-4.23l-0.21-4.18l-0.14-4.51l0.56-2.94l0.13-2.68l-1.38-3.34
		l-0.19-2.27l31.431,0.09l-0.05-8.87l5.109-0.18l2.86,12.64l4.81,3.83l10.7,1.18l15.73,3.17l15.189,6.5l12.28-3.65l19.29,4.76
		H748.224z"/>
	<path id="US-MO" d="M728.773,401.772l-1.229,5.71l1.89,6.7l3.14,4.51l3.551,3.67l4.22,2.82l1.68,0.94l1.721,4.22l0.51,3.77
		l2.069,0.83l3.261-1.67l3.6,3.431l-0.74,4.239l-1.439,3.4l-0.9,4.05l2.74,3.24l3.75,2.96l2.04-0.05l5.04,4.649l1.86,0.54l1.729,5.38
		l-0.42,3.44l2.72,5.39l1.91-0.729l3.48,3.27l-0.4,2.311l0.62,3.529l-2.75,2.101l-3.92,2.68l-0.32,2.22l-0.89,3.311l-1.04,5.62
		l-12,0.79l0.99-2.32l1.899-2.58l1.91-2.57l-1.71-2.699l-20.91-0.17l-19.31,0.89l-20.24,0.64l-22.26,0.16l0.04-10.42h-0.091
		l-0.239-24.24l-0.181-24.29l-4.67-2.08l-2.229-4.739l-1.36-2.141l2.42-4.229l-0.54-3.28l-2.27,0.07l-4.17-2.99l-2.3-4.83
		l-2.711-2.891l-2.93-3.579l-0.35-1.87l15.529-0.1l15.5-0.301l19.891-0.74l18.87-1.26l3.479,3.521L728.773,401.772z"/>
	<path id="US-MS" d="M795.754,519.253l1.71,4.27l-0.82,29.65l-0.32,36.57l3.521,34.729l-11.72,6.11l-11.431,0.47l-0.529-2.24
		l-0.971-3.729l-2.779-2.471l-1.45-2.8l1.05-3.83l0.3-3.83l-18.529,1.13l-17.381,0.2l-1.069-5.66l2.27-2.67l1.5-5.59l1.51-4.87
		l3.57-3.75l0.66-4.35l2.56-2.48l-2.71-3.779l0.641-2.86l-3.04-4.53l1.569-3.38l-1.439-1.229l0.68-4.521l-2.51-5.85l0.15-5.41
		l3.699-8.15l1.74-4.79l3.15-3.279l2.1-1.42l2.14-6.221l-0.13-3.29l3.23-1.899l0.24-1.82l18.359-1.28L795.754,519.253z"/>
	<path id="US-MT" d="M521.644,270.933l-2.68,20.78l-26.83-2.88l-28.95-3.29l-24.91-3.65l-31.5-4.76l-1.84,11.44l-0.43,0.75
		l-1.54-1.53l-1.03-3.42l-1.63-0.91l-3.06,4.07l-3.81,0.08l-8.81-3.02l-0.83,2.13l-5.11-1.79l-3.54,2.56l-1.74-6.36l-1.35-3.63
		l-3.14-1.18l-0.65-1.82l0.13-6.05l-2.26-3.35l-0.41-7.44l-1.27-3.45l-1.78-1l-2.24,2.83l-3.65,2.03l-2.35-2.79l1.02-5.77l2.12-1.07
		l-0.12-6.03l2.72-5.59l2.72-4.62l-4.61-1.17l-3.3-4.09l-2.8-7.84l-1.81-4.02l-3.06-2.89l-2.04-4.2l0.9-4.04l-2.66-6.84l4.08-23.87
		l44.43,9.17l44.721,7.7l44.949,6.23l45.13,4.75l-3.52,42.05L521.644,270.933z"/>
	<path id="US-NC" d="M1015.014,449.692l7.54,21.57l-7.91,19.03l-16.189,12.41l-13.57,14.439l-6.33,2.61l-24.71-17.24l-20.54,3.37
		l-0.39-2.62l-3.521-3.31l-1.609,1.79l-0.471-1.95l-8.79,0.37l-17.03,2.46l-9.399,5.319l-1.75,0.931l-23.08,2.96l-0.21-4.82
		l3.73-1.93l0.949-2.58l2.25-3.08l3.65-1.101l4.18-1.63l3.92-2.529l1.53-2.24l3.229-2.3l-0.329-1.61l4.149-3.72l1.771,1.76l6.09-5.25
		l3.21-0.04l2.21-4.2l3.54-1.55l-0.7-3.17l0.01-2.89l30.61-4.15l35.86-6.68l18.939-4.11L1015.014,449.692z"/>
	<path id="US-ND" d="M630.863,206.543l0.19,2.27l1.38,3.34l-0.13,2.68l-0.56,2.94l0.14,4.51l0.21,4.18l1.74,4.23l1.83,4.74
		l0.729,4.66l0.28,2.75l0.03,3.09l0.58,6.73l0.52,1.26l0.15,5.22l0.729,4.66l1.3,3.72l0.971,3.48l-0.03,4.16l-30.351,0.75
		l-25.899-0.98l-32.65-1.73l-30.38-2.27l1.66-27.79l3.52-42.05l52.431,3.74L630.863,206.543z"/>
	<path id="US-NE" d="M641.863,355.603l0.74,2.27l1.061,3.75l-0.051,1.88l3.07,4.29l1.061,3.76l0.119,5.25l1.23,0.74l1.13,2.71
		l1.771,6.55l0.38,3.91l-0.48,4.06l1.15,4.11l0.35,1.87l2.93,3.579l2.711,2.891l2.3,4.83h-24.021l-40.12-0.811l-22.659-0.91
		l-30.44-1.729h-0.03l0.04-0.729l1.51-21.98l-34.229-2.66l3.88-45.18l32.5,2.53l25,1.48l33.45,1.32l4.24,2.99l6.109,1.96l1.46-1.01
		l3.98,0.16l5.979-0.13l4.29,2.98l4.58,1.94l0.75,1.9l1.44,1.1L641.863,355.603z"/>
	<path id="US-NH" d="M1066.754,283.373l-1.32,5.69l-2.02,0.13l-3,2.44l-1.07,2.63l-19.59,5.12l-1.9-1.94l0.521-3.19l-1.141-5.87
		l0.131-1.51l-0.841-5.34l0.58-4.86l0.79-2.27l0.49-5.72l-0.59-3.64l-0.051-2.28l2.761-1.89l2.83-3.52l-0.13-2.9l-2.03-2.83
		l0.18-6.49l-0.03-0.01l0.051-5.85l4.97-2.13l13.29,39.35l0.01,2.33l3.87,2.41l1.61,2.84L1066.754,283.373z"/>
	<path id="US-NJ" d="M1025.773,344.393l-3.12,12.14l4.45-0.07l0.99,16.59l-8.38,19.97l-2.62-5.37l-4.04-0.26l-5.45-4.83l-1.45,0.59
		l-1.42-4.149l2-2.89l3.021-2.83l0.899-1.66l3.34-3.87l1.61-2.92l-6.67-4.46l-0.84-2.27l-1.99-0.26l-0.75-3.57l1.33-3.16l-1.569-2.67
		l2.22-2.57l1.75-5.63l1.8-1.46L1025.773,344.393z"/>
	<path id="US-NM" d="M522.233,475.362l-0.84,11.221l-4.58,59.31l-3.3,42.72l-17.979-1.479l-34.841-3.4l-17.39-1.96l-0.02,1.96
		l1.75,3.87l-33.331-4.189l-1.51,9.3l-15.57-2.13l18.39-127.431l28.21,3.83l28.54,3.44l30.771,3.09L522.233,475.362z"/>
	<path id="US-NV" d="M345.914,336.673l-22.29,111.18l-3.47,17.92l-0.93,0.58l-1.88,3.15l-2.28-1.38l-3.14-2.29l-3.79-0.78
		l-1.81,2.479l0.98,3.381l-1,4.779l-0.52,4.391l-0.01,4.54l-2.03,4.13l-24.25-34.76l-24.81-36.73l-24.91-38.101l17.77-65.649
		l48.82,12.24l0.02-0.06L345.914,336.673z"/>
	<path id="US-NY" d="M1026.273,302.503l0.341,16.07l3.329,17.07l1.78,1.54l-3.08,3.06l1.271,2.54l22.779-9.06l6.03,2.83l-21.62,12.72
		l-10.67,2.73l-0.66-7.61l-14.89-5.61l-3.061-0.92l-3.189-0.87l-1.83-2.96l-0.13-2.54l-2.44-1.54l-4.399-2.64l-22.47,4.97
		l-24.171,5.01l-25.96,4.92l-1.1-6.06l11.73-15.95l-0.721-2.08l-0.01-0.06l-3.46-6.03l7.97-4.44l12.96-1.72l13.71-0.93l10.561-9.98
		l-2.87-8.44l-2.59-3.06l-0.07-0.02l0.01-0.01l0.07,0.03l13.05-18.88l6.17-5.76l23.85-6.02l0.82,4.56l0.09,3.01l2.051,6.46
		l1.729,3.15l-0.44,4.97l2.931,5.4l-0.21,3.46l0.51,0.76l2.34-0.42L1026.273,302.503z"/>
	<path id="US-OH" d="M915.794,374.853l-2.17,1.52l1.21,2.72l0.08,5.29l-0.78,6.12l-0.86,5.11l0.101,2.35l-3.86,5.89l-1.83,1.42
		l-2.24,1.011l-2.18-0.16l-3.271,4.47l-0.069,4.149l-0.2,2.271l-1.42,1.13l-0.61-2.46l-2.45-0.18l-1.72,5.24l0.48,5.01l-1.82,3.46
		l-4.29,1.229l-3.609-1.67l-1.86-2.939l-3.28,0.87l-3.6,1.77l-3.28-0.86l-4.11,1.2l-2.96-1.45l-3.939-1.09l-5.34-4.47l-3.38-1.771
		l-6.07,0.23l-1.82-15.61l-2.58-21.93l-2.46-20.39l8.62-1.26l7.68-1.01l6.33-1.08l0,0v0.01l11.07,3.17l8.59-0.1l11.75-4.89l8.94-7.82
		l8.1-4.47L915.794,374.853z"/>
	<path id="US-OK" d="M674.624,490.393l4.05,23.93l-0.021,22.101l-0.21,19.899l-8.239-4.34l-5.341-2.359l-4.3,1.569l-6.67-0.21
		l-3.95,0.04l-3.25,1.851l-3.18,0.939l-2.78-1.13l-6.35,1.19l-2.84-3.82l-3,3.25l-5.16-1.54l-5.25-3.62l-5.74,2.16l-2.359-5.53
		l-8.82,0.311l-5.59-1.391l-6.28-1.83l-2.63-4.81l-5.01,1.33l-2.99-1.98l-4.38-2.63l0.96-21.66l0.97-22.21l-18.3-0.909l-18.3-1.101
		l-18.271-1.31l0.84-11.221l17.45,1.33l17.101,1.021l18.159,0.899l18.181,0.69l32.75,0.75l32.739,0.11l15.96-0.19h0.091
		L674.624,490.393z"/>
	<path id="US-OR" d="M319.044,237.403l2.67,5.14l2.2,2.41l0.06,3.57l-2.25,2.54l-3.44,5.24l-3.92,6.66l-4.44,3.59l-3.42,4.51
		l-0.88,3.54l2.63,2.2l0.61,3.2l-2.88,5.97l-9.6,39.72l-0.02,0.06l-48.82-12.24l-68.45-20.38l-1.26-13.8l12.32-21.65l8.93-24.11
		l13.21-31.97l3.23,0.69l4.59,1.56l3.07,3.13l4.03,2.61l1.56,5.04l-0.71,3.79l0.21,3.41l3.3,1.9l3.8,1.061l6.63-0.57l3.69,0.31
		l5.23,2.52l2.1,1.84l3.45,0.13l4.01-0.8l6.88,2.21l6.39-0.89l3.49-0.99l3.68,2.01l6.14-0.87L319.044,237.403z"/>
	<path id="US-PA" d="M1010.884,338.783l-1.8,1.46l-1.75,5.63l-2.22,2.57l1.569,2.67l-1.33,3.16l0.75,3.57l1.99,0.26l0.84,2.27
		l6.67,4.46l-1.61,2.92l-3.34,3.87l-0.899,1.66l-3.021,2.83l-3.93-0.3l-1.311,1.34l-0.909,2.041l-15.05,3.389l-14.67,2.99
		l-12.16,2.551l-5.44,1.109l-15.97,2.99l-17.96,3.2l-3.54-20.57l-5.11-29.97l0,0l11.42-8.69l0.03-0.04l1.1,6.06l25.96-4.92
		l24.171-5.01l22.47-4.97l4.399,2.64l2.44,1.54l0.13,2.54l1.83,2.96l3.189,0.87L1010.884,338.783z"/>
	<path id="US-RI" d="M1068.943,320.433l-11.029,7.16l0.13-3.48l-3.4-11.94l6.82-2.14l2.81,5.4l3.28,1.79L1068.943,320.433z"/>
	<path id="US-SC" d="M978.554,519.753l-4.35,17.109l-13.931,16.92l-17.96,14.86l-3.479-0.61l-1.9-0.539l-0.67-4.29l-2.58-3.91
		l-3.95-1.88l0.391-1.761l-1.53-2.31l-2.18-4.92l-6.771-3.58l-3.04-5.01l-5.03-2.971l-1.72-2.6l-7.34-4.35l-2.82-3.66l-4.51-6.61
		l-3.43-0.899l-5.55-3.03l2.369-4.681l1.771-2.159l1.75-0.931l9.399-5.319l17.03-2.46l8.79-0.37l0.471,1.95l1.609-1.79l3.521,3.31
		l0.39,2.62l20.54-3.37L978.554,519.753z"/>
	<path id="US-SD" d="M642.014,332.573h-2.2l-0.06,5.55l2.109,3.03l-0.409,2.47l-0.891,3.64l-1.37,3.72l2.7,2.54l-0.03,2.08
		l-2.819-0.33l-1.44-1.1l-0.75-1.9l-4.58-1.94l-4.29-2.98l-5.979,0.13l-3.98-0.16l-1.46,1.01l-6.109-1.96l-4.24-2.99l-33.45-1.32
		l-25-1.48l-32.5-2.53l3.7-46.34l2.68-20.78l30.38,2.27l32.65,1.73l25.899,0.98l30.351-0.75l-0.3,3.32l-3.601,2.53l-0.89,3.09
		l1.56,3.54l2.801,1.8l1.85,21.85L642.014,332.573z"/>
	<path id="US-TN" d="M874.313,473.963l27.03-3.141l9.1-1.869l-0.01,2.89l0.7,3.17l-3.54,1.55l-2.21,4.2l-3.21,0.04l-6.09,5.25
		l-1.771-1.76l-4.149,3.72l0.329,1.61l-3.229,2.3l-1.53,2.24l-3.92,2.529l-4.18,1.63l-3.65,1.101l-2.25,3.08l-0.949,2.58l-3.73,1.93
		l0.21,4.82l-9.87,1.479l-14.34,1.5l-23.9,2.271l-23.399,2.17l-20.48,1.149l-18.359,1.28l1.989-2.25l-0.649-6.58l2.74-3.17l0.46-3.8
		l3.09-2.42l1.649-3.32l0.061-1.89l1.04-5.62l0.89-3.311l0.32-2.22l26.1-1.87l-0.37-3.55l3.61-0.37l0.68,0.98l11.33-1.7l9.811-0.86
		l10.659-0.95l10.5-0.539l5.19-0.891l16.12-1.02L874.313,473.963z"/>
	<path id="US-TX" d="M678.443,556.322l1.03,1.471l3.69-0.37h4.409l-0.829,12.939l1.71,24.351l3.25,2.5l1.17,3.5l1.8,5.25l2.399,5.14
		l1.83,3.07l-1.68,8.41l-1.2,2.51l-1.59,5.51l1.49,1.49l0.06,4.57l-2.91,3.1l-1.949,3.41l1.72,2.99l-17.021,5.14l-18.199,17.2
		l-20.21,9.899l-11.261,10.891l-4.869,10.31l-0.44,15.94l0.87,11.13l3.87,7.95l-8.2,0.569l-14.78-5.41l-16.09-7.659l-5.45-11.07
		l-3.93-16.33l-11.54-13.64l-6.39-13.801l-9.29-16.239l-13.58-9.95l-16.351-0.65l-13.989,17.141l-16.11-8.25l-9.72-7.84
		l-3.761-13.021l-5.39-12.54l-10.63-11.21l-9.19-8.26l-6.159-8.86l-1.75-3.87l0.02-1.96l17.39,1.96l34.841,3.4l17.979,1.479
		l3.3-42.72l4.58-59.31l18.271,1.31l18.3,1.101l18.3,0.909l-0.97,22.21l-0.96,21.66l4.38,2.63l2.99,1.98l5.01-1.33l2.63,4.81
		l6.28,1.83l5.59,1.391l8.82-0.311l2.359,5.53l5.74-2.16l5.25,3.62l5.16,1.54l3-3.25l2.84,3.82l6.35-1.19l2.78,1.13l3.18-0.939
		l3.25-1.851l3.95-0.04l6.67,0.21l4.3-1.569l5.341,2.359L678.443,556.322z"/>
	<path id="US-UT" d="M425.854,373.303l-12.84,89.85l-26.07-4.149l-34.44-5.96l-28.88-5.19l22.29-111.18l49.76,8.96l-3.72,21.79
		L425.854,373.303z"/>
	<path id="US-VA" d="M969.264,395.232l2.68,0.24l2.641,1.189l-0.78,2.65l3.93,0.58l3.75,1.801l1.84,1.6l0.19,1.32l0.07,1.859
		l-2.521,2.71l-0.949,5.36l2.569,0.72l2.64-1.56l1.681,2.91l13.729,10.02l5.74,9.84l0.35,0.6l8.2,12.61l-19.159,4.32l-18.931,4.109
		l-35.87,6.681l-30.609,4.159l-9.101,1.87l-27.04,3.141l5.061-2l3.529-1.92l1.301-2.42l4.55-3.381l1.569-2.649l0.171-1.88l5.21-3.46
		l6.13-7.78l1.39,3.68l2.33,1.71l3.01,1.37l5.211-3.609l2.409,1.22l6.36-2.98l0.05-2.069l2.15,0.449l1.93-2.01l2.54-0.109l2.53-2.221
		l0.03-2.109l-0.771-2.53l1.72-4.29l2.9-3.52l0.279-3.45l2.301-4.51l0.8-5.16l2.64,1.3l2.9,1.109l2.359-1.329l0.461-2.19l1.199-3.09
		l1.34-3.53l1.44,0.69l2.03-3.37l2.84-3.57l1.72-2.63l0.2-6.189l10.03,4.26L969.264,395.232z M1008.614,434.723l1.81,0.521
		l5.88-19.911l-3.99,1.271l-1.029,1.82L1008.614,434.723z"/>
	<path id="US-VT" d="M1039.754,299.383l-13.48,3.12l-3.96-18.35l-2.34,0.42l-0.51-0.76l0.21-3.46l-2.931-5.4l0.44-4.97l-1.729-3.15
		l-2.051-6.46l-0.09-3.01l-0.82-4.56l28.83-7.68l0.03,0.01l-0.18,6.49l2.03,2.83l0.13,2.9l-2.83,3.52l-2.761,1.89l0.051,2.28
		l0.59,3.64l-0.49,5.72l-0.79,2.27l-0.58,4.86l0.841,5.34l-0.131,1.51l1.141,5.87l-0.521,3.19L1039.754,299.383z"/>
	<path id="US-WA" d="M333.034,169.923l-6.67,28.62l-6.88,31.2l0.62,3.73l-1.06,3.93l-31.98-7.71l-6.14,0.87l-3.68-2.01l-3.49,0.99
		l-6.39,0.89l-6.88-2.21l-4.01,0.8l-3.45-0.13l-2.1-1.84l-5.23-2.52l-3.69-0.31l-6.63,0.57l-3.8-1.061l-3.3-1.9l-0.21-3.41l0.71-3.79
		l-1.56-5.04l-4.03-2.61l-3.07-3.13l-4.59-1.56l-3.23-0.69l1.7-19.45l4.33-21.82l19.27,10.45l1.35,19.22l5.44-4.7l3.03-18.77
		l-1.42-20.29l43.32,12.58L333.034,169.923z"/>
	<path id="US-WI" d="M737.823,259.573l0.15,0.11l0.94-0.54l0.02,0.07l2.53,0.6l1.54,4.03l14.13,3.11l9.479,3.39l4.48-0.33l3.12,0.03
		l1.2,3.67l3.899,1.11l1.7,3.07l-0.81,1.92l-0.4,3.76l3.55-0.12l-0.85,3.77l2.39,2.49l0.01-0.04l0.431,0.12l-0.13,0.229l-5.591,8.771
		l2.44,2.49l10.48-15.75l2.409-0.32l-6.689,18.29l-2.22,16.15l-1.971,13.11l3.08,10.91l0.061,5.56h-0.061l0.01,0.06l-12.92,0.91
		l-17.51,1.29l-17.13,1.1l-1.83-3.37l-5.59-1.87l-1.271-3.55l-0.79-1.99l-0.31-4.77l1.39-1.8l-2.35-3.49l-0.3-1.23l-0.57-2.54
		l-0.33-5.47l-0.63-1.85l-5.72-3.09l-4.311-3.72l-1.26-2.4l-1.9-1.46l-5.409-3.02l-1.95-0.13l-4.91-4.21l0.32-5.03l-0.21-6.19
		l1.02-5.78l-3.52-4.16l2.13-4.28l3.319-2.32l3.841-2.68h0.5l-0.69-12.82l4.1-1.45l0,0l15.511-5.55L737.823,259.573z"/>
	<path id="US-WV" d="M937.294,392.223l1.93,11.35l2.29-2.49l2.49-3.119l3.26-1.53l1.86-2.771l5.26-0.09l1.56-2.02l2.98-2.33l5.67,0.7
		l2.74,2.75l1.93,2.56l-1.09,4.57l-10.03-4.26l-0.2,6.189l-1.72,2.631l-2.84,3.569l-2.03,3.37l-1.439-0.689l-1.351,3.52l-1.199,3.1
		l-0.461,2.181l-2.35,1.33l-2.91-1.11l-2.64-1.3l-0.8,5.16l-2.301,4.51l-0.279,3.45l-2.891,3.52l-1.729,4.29l0.75,2.57l-0.03,2.109
		l-2.52,2.221l-2.54,0.109l-1.931,2.01l-2.149-0.46l-0.05,2.07l-6.36,2.98l-2.41-1.23l-5.21,3.61l-3-1.37l-2.34-1.71l-1.38-3.68
		l-3.54,0.119l-2.2-2.439l-3.04-2.521l-1.37-3.27l-2.64-3.19l-0.5-4.67l-0.65-2.08l4.29-1.229l1.82-3.46l-0.48-5.01l1.72-5.24
		l2.45,0.18l0.61,2.46l1.42-1.13l0.2-2.271l0.069-4.149l3.271-4.47l2.18,0.16l2.24-1.011l1.83-1.42l3.86-5.89l-0.101-2.35l0.86-5.11
		l0.78-6.12l-0.08-5.29l-1.21-2.72l2.17-1.52l3.54,20.57L937.294,392.223z"/>
	<path id="US-WY" d="M518.964,291.713l-3.7,46.34l-3.88,45.18l-17.15-1.609l-34.229-3.78l-17.08-2.18l-17.07-2.36l-33.9-5.88
		l3.72-21.79l9.34-55.81l-0.51-0.5l0.43-0.75l1.84-11.44l31.5,4.76l24.91,3.65l28.95,3.29L518.964,291.713z"/>	
	<path id="US-PR" d="M850.602,733.809l10.852,0.924l-0.422,5.61l-1.91,1.413l-0.625,2.803l-3.625,0.568
	l-3.25,0.932l-1.54,0.43h-8.366l-1.344,1l-0.5-1.5l-8.25,2.25l-3.25-3.68l-1.312-6.07"/>		
		
</g>		
</svg>
